<?xml version="1.0" standalone="no"?>
<!DOCTYPE svg PUBLIC "-//W3C//DTD SVG 20010904//EN"
 "http://www.w3.org/TR/2001/REC-SVG-20010904/DTD/svg10.dtd">
<svg version="1.0" xmlns="http://www.w3.org/2000/svg"
 width="400.000000pt" height="400.000000pt" viewBox="0 0 400.000000 400.000000"
 preserveAspectRatio="xMidYMid meet">
<metadata>
Created by potrace 1.11, written by Peter Selinger 2001-2013
</metadata>
<g transform="translate(0.000000,400.000000) scale(0.100000,-0.100000)"
fill="#000000" stroke="none">
<path d="M1865 3681 c-275 -69 -510 -275 -659 -576 -128 -257 -176 -485 -176
-835 0 -260 31 -530 95 -828 70 -323 212 -604 390 -771 92 -85 118 -95 38 -14
-125 126 -192 275 -277 621 -95 384 -139 691 -139 992 -1 203 14 332 53 485
93 359 290 634 545 760 120 60 197 78 320 78 431 -1 665 -275 724 -848 17
-157 6 -560 -18 -720 -55 -355 -179 -741 -348 -1080 -119 -238 -267 -384 -424
-420 -64 -15 -64 -15 -13 -11 175 15 369 159 518 384 162 244 317 720 383
1177 24 172 24 605 0 765 -80 516 -278 776 -645 846 -102 19 -279 17 -367 -5z"/>
<path d="M2337 3243 c-16 -3 -79 -42 -140 -87 -148 -110 -284 -198 -437 -284
-69 -38 -135 -79 -147 -90 -17 -15 -34 -20 -65 -19 l-43 2 -42 -84 c-24 -46
-43 -94 -43 -108 0 -38 42 -73 88 -73 49 0 89 31 200 156 128 145 183 182 249
169 42 -8 44 -12 89 -200 19 -82 46 -181 60 -218 l24 -69 -32 9 c-63 16 -151
9 -198 -16 -129 -66 -253 -260 -349 -547 -138 -415 -118 -857 47 -1022 51 -51
102 -78 189 -98 215 -51 423 74 539 322 71 153 100 356 84 601 -15 242 -41
382 -150 828 -64 264 -100 449 -100 520 0 53 30 95 68 95 14 0 52 -5 83 -12
67 -14 76 -9 121 61 20 32 28 58 28 88 0 38 -4 46 -32 63 -33 20 -38 21 -91
13z m-258 -1123 c76 -118 128 -275 151 -459 10 -82 9 -85 -15 -117 -14 -19
-54 -47 -92 -66 -62 -30 -75 -33 -164 -33 -91 0 -100 2 -170 38 -41 20 -93 54
-117 75 l-43 37 26 100 c32 124 99 264 160 332 46 53 185 153 211 153 8 0 32
-27 53 -60z m-369 -707 c115 -57 218 -77 363 -70 62 3 124 8 138 12 l26 7 -9
-59 c-43 -284 -195 -493 -358 -493 -63 0 -144 41 -181 92 -56 78 -89 214 -89
367 0 85 11 193 19 188 3 -1 44 -22 91 -44z"/>
</g>
</svg>
