<?xml version="1.0" encoding="utf-8"?>
<!-- Generator: Adobe Illustrator 24.3.0, SVG Export Plug-In . SVG Version: 6.00 Build 0)  -->
<svg version="1.1" id="Layer_1" xmlns="http://www.w3.org/2000/svg" xmlns:xlink="http://www.w3.org/1999/xlink" x="0px" y="0px"
	 viewBox="0 0 16 14.5" style="enable-background:new 0 0 16 14.5;" xml:space="preserve">
<style type="text/css">
	.st0{fill:url(#SVGID_1_);}
	.st1{fill:url(#SVGID_2_);}
	.st2{fill:#FFFFFF;}
</style>
<g>
	<g>
		
			<linearGradient id="SVGID_1_" gradientUnits="userSpaceOnUse" x1="0.5024" y1="23.2475" x2="15.4975" y2="23.2475" gradientTransform="matrix(1 0 0 1 0 -16)">
			<stop  offset="0.0162" style="stop-color:#1B455B"/>
			<stop  offset="1" style="stop-color:#026680"/>
		</linearGradient>
		<path class="st0" d="M15.49,10.63l-0.01-6.64c0-0.68-0.43-1.28-1.08-1.5l-5.6-1.9c-0.52-0.18-1.1-0.18-1.62,0l-5.6,1.92
			C0.94,2.73,0.5,3.33,0.51,4.01v7.85c-0.04,0.13,0.07,0.21,0.52,0.52c1.17,0.77,3.19,1.39,5.15,1.59c0.35,0.04,0.71,0.06,1.08,0.07
			c0.09,0,0.18,0,0.27,0c0.72,0,1.43-0.09,2.11-0.18l0.23-0.03c0.34-0.04,0.7-0.12,1.04-0.2c0.09-0.02,0.18-0.04,0.27-0.06
			c0.44-0.1,0.84-0.22,1.22-0.33l0.16-0.05v-0.01c0.01,0,0.01,0,0.02-0.01c0.18-0.06,0.39-0.13,0.59-0.22
			c0.09-0.04,0.4-0.18,0.45-0.2l0.08-0.04c0.12-0.06,0.31-0.16,0.34-0.18c0.65-0.37,1.07-0.72,1.27-1.07
			c0.09-0.16,0.15-0.32,0.18-0.53c0.01-0.08,0.01-0.16,0-0.24C15.5,10.68,15.49,10.65,15.49,10.63z"/>
	</g>
	<g>
		<g>
			
				<linearGradient id="SVGID_2_" gradientUnits="userSpaceOnUse" x1="7.2666" y1="29.3014" x2="6.0489" y2="22.3953" gradientTransform="matrix(1 0 0 1 0 -16)">
				<stop  offset="0" style="stop-color:#FFFFFF"/>
				<stop  offset="1" style="stop-color:#CFEBF2"/>
			</linearGradient>
			<path class="st1" d="M11.43,6.4C11.43,6.4,11.43,6.39,11.43,6.4c0-0.04,0-0.08,0.01-0.13l0,0c0-0.04,0-0.09,0-0.15V6.11
				c0-0.22,0-0.48-0.03-0.66l0,0C10.06,6.03,9.78,6.37,9.1,6.78c-0.23,0.14-0.82,0.17-1.27,0.2C7.53,7,7.25,7.09,7,7.24L6.79,7.36
				c-0.18,0.1-0.37,0.18-0.57,0.22L3.4,8.37C3.3,8.39,3.2,8.4,3.1,8.41L1.4,8.49v2.89c0.08,0.07,0.2,0.16,0.4,0.3
				c0.2,0.13,0.44,0.26,0.7,0.38c0.53,0.23,1.41,0.52,1.51,0.55c0.14,0.03,1.5,0.3,2.26,0.38c0.33,0.03,0.67,0.06,1.01,0.07
				c0.75,0.03,1.46-0.07,2.23-0.17l0.23-0.03c0.3-0.04,0.63-0.11,0.95-0.19l0.28-0.06c0.04-0.01,0.08-0.02,0.12-0.03v-0.01
				c0-0.43,0.14-0.72,0.14-1.16c0-0.56,0.05-1.1,0.05-1.15c0-0.1-0.07-0.5-0.06-0.6c0.01-0.13,0.08-0.44,0.08-0.55
				c0.02-0.29-0.06-1.56-0.06-1.56l0.18-1.05C11.42,6.5,11.43,6.46,11.43,6.4z"/>
		</g>
		<g>
			<path class="st2" d="M2.62,5.8C2.54,5.81,2.46,5.81,2.37,5.82c-0.1,0.01-0.2,0.01-0.3,0.02c-0.06,0-0.12,0.01-0.18,0.01
				C1.73,5.86,1.57,5.87,1.4,5.88v2.64l1.72-0.08c0.1-0.02,0.2-0.03,0.3-0.05L6.24,7.6c0.2-0.04,0.39-0.12,0.57-0.22l0.21-0.12
				C7.27,7.11,7.55,7.02,7.84,7c0.45-0.03,1.04-0.06,1.27-0.2c0.68-0.4,0.97-0.74,2.31-1.33L11.4,5.45
				c-0.01-0.06-0.03-0.12-0.05-0.16c-0.05-0.1-1.29-0.1-1.38-0.1C9.56,5.22,7.54,5.36,7.54,5.36S4.14,5.5,3.16,5.72
				C3.06,5.74,2.94,5.76,2.8,5.78C2.75,5.78,2.68,5.79,2.62,5.8z"/>
		</g>
	</g>
</g>
</svg>
